#define hand_width 35
#define hand_height 32
#define hand_x_hot 3
#define hand_y_hot 31
static unsigned char hand_bits[] = {
   0x00, 0x00, 0x18, 0x00, 0x00, 0x00, 0x00, 0x0c, 0x00, 0x00, 0x00, 0x00,
   0x06, 0x00, 0x00, 0x00, 0x00, 0x03, 0x00, 0x00, 0x00, 0xf8, 0x01, 0x00,
   0x04, 0x00, 0x0c, 0x00, 0x00, 0x06, 0x00, 0x06, 0x00, 0x00, 0x03, 0x00,
   0x03, 0x00, 0x84, 0x01, 0x80, 0x01, 0x00, 0xc8, 0x00, 0xc0, 0x00, 0x00,
   0x68, 0x00, 0x60, 0x04, 0x00, 0x30, 0x00, 0x30, 0x02, 0x00, 0x10, 0x00,
   0x18, 0x11, 0x00, 0x10, 0x00, 0x88, 0x08, 0x00, 0x10, 0x00, 0x48, 0x44,
   0x00, 0x10, 0x00, 0x28, 0x22, 0x00, 0x10, 0x00, 0x08, 0x11, 0x00, 0x10,
   0x00, 0x98, 0x08, 0x00, 0x10, 0x00, 0x50, 0x08, 0x0c, 0x10, 0x00, 0x20,
   0x04, 0x1e, 0x10, 0x00, 0x20, 0x04, 0x1f, 0x10, 0x00, 0xe0, 0x82, 0x0f,
   0x18, 0x00, 0x80, 0x81, 0x00, 0x0c, 0x00, 0x00, 0x81, 0x00, 0x06, 0x00,
   0x00, 0x41, 0x00, 0x03, 0x00, 0x80, 0x20, 0x80, 0x01, 0x00, 0x40, 0x70,
   0xc0, 0x00, 0x00, 0x20, 0xd8, 0x7f, 0x00, 0x00, 0x50, 0x0c, 0x00, 0x00,
   0x00, 0x48, 0x06, 0x00, 0x00, 0x00, 0x18, 0x03, 0x00, 0x00, 0x00, 0xf0,
   0x01, 0x00, 0x00, 0x00 };
